<svg xmlns="http://www.w3.org/2000/svg" viewBox="0 0 64 64" role="img" aria-label="face">
  <title>face</title>
  <defs>
    <path id="F" d="M19.20639834881321 48.021671826625386Q17.924664602683176 48.021671826625386 16.642930856553146 47.64189886480908Q15.361197110423115 47.26212590299278 14.45923632610939 46.40763673890609Q13.557275541795665 45.5531475748194 13.367389060887511 44.128998968008254Q12.465428276573785 43.70175438596491 11.444788441692465 42.9422084623323Q10.424148606811144 42.18266253869969 9.712074303405572 41.18575851393189Q8.999999999999998 40.188854489164086 8.999999999999998 39.09700722394221Q8.999999999999998 37.577915376676984 10.352941176470587 36.53353973168214Q11.705882352941174 35.4891640866873 13.937048503611969 34.800825593395246Q16.168214654282764 34.112487100103195 18.802889576883384 33.70897832817337Q21.437564499484004 33.30546955624355 24.048503611971103 33.115583075335394Q26.659442724458202 32.925696594427244 28.81940144478844 32.85448916408669Q30.979360165118678 32.78328173374613 32.166150670794636 32.78328173374613Q32.830753353973165 31.596491228070175 33.80392156862745 29.958720330237355Q34.77708978328174 28.32094943240454 35.98761609907121 26.588235294117645Q37.19814241486068 24.85552115583075 38.55108359133127 23.336429308565528Q39.90402476780186 21.81733746130031 41.328173374613 20.844169246646025Q42.752321981424146 19.871001031991742 44.22394220846233 19.728586171310628Q41.9453044375645 19.11145510835913 39.31062951496388 18.779153766769866Q36.67595459236326 18.446852425180598 34.01754385964912 18.280701754385966Q31.359133126934985 18.11455108359133 28.985552115583076 18.11455108359133Q27.941176470588236 18.11455108359133 26.20846233230134 18.185758513931887Q24.475748194014447 18.256965944272444 22.529411764705884 18.541795665634673Q20.583075335397318 18.826625386996902 18.850361197110423 19.42002063983488Q17.11764705882353 20.013415892672857 16.00206398348813 21.034055727554176Q14.886480908152734 22.054695562435498 14.886480908152734 23.62125902992776Q14.886480908152734 25.282765737874097 15.859649122807017 26.683178534571724Q16.8328173374613 28.08359133126935 18.304437564499484 29.12796697626419Q19.776057791537667 30.172342621259027 21.152734778121776 30.789473684210527Q21.29514963880289 30.836945304437563 21.57997936016512 31.0030959752322Q21.864809081527348 31.16924664602683 21.864809081527348 31.359133126934985Q21.864809081527348 31.5015479876161 21.627450980392155 31.5015479876161Q21.437564499484004 31.5015479876161 21.223942208462333 31.430340557275542Q21.01031991744066 31.359133126934985 20.820433436532504 31.311661506707946Q19.301341589267285 30.789473684210527 17.639834881320947 29.863777089783284Q15.97832817337461 28.938080495356036 14.839009287925695 27.53766769865841Q13.69969040247678 26.137254901960784 13.69969040247678 24.285861713106293Q13.69969040247678 23.90608875128999 13.747162022703817 23.502579979360164Q13.794633642930854 23.099071207430338 13.937048503611969 22.766769865841074Q14.554179566563466 20.630546955624354 15.954592363261092 19.301341589267285Q17.35500515995872 17.972136222910216 19.230134158926727 17.236326109391122Q21.105263157894736 16.500515995872032 23.1702786377709 16.23942208462332Q25.235294117647058 15.97832817337461 27.134158926728585 15.97832817337461Q30.267285861713106 15.97832817337461 33.30546955624355 16.42930856553147Q36.343653250774 16.880288957688336 39.38183694530444 17.497420020639833Q42.42002063983488 18.11455108359133 45.45820433436532 18.565531475748195Q48.496388028895765 19.016511867905056 51.582043343653254 19.016511867905056Q52.3890608875129 19.016511867905056 52.84004127966976 18.70794633642931Q53.29102167182663 18.39938080495356 53.552115583075334 18.09081527347781Q53.81320949432405 17.78224974200206 54.050567595459235 17.78224974200206Q54.43034055727554 17.78224974200206 54.71517027863777 18.09081527347781Q55.0 18.39938080495356 55.0 18.731682146542827Q55.0 18.969040247678016 54.857585139318886 19.063983488132095Q54.71517027863777 19.15892672858617 54.47781217750258 19.253869969040245Q52.958720330237355 20.013415892672857 51.91434468524251 21.651186790505676Q50.869969040247675 23.288957688338492 49.92053663570692 24.6656346749226Q49.82559339525284 24.808049535603715 49.58823529411765 25.092879256965944Q49.35087719298246 25.377708978328172 49.1609907120743 25.377708978328172Q49.01857585139319 25.377708978328172 49.01857585139319 25.18782249742002Q49.01857585139319 24.57069143446852 49.46955624355005 23.739938080495357Q49.92053663570692 22.909184726522188 50.34778121775026 22.07843137254902Q50.7750257997936 21.24767801857585 50.7750257997936 20.72549019607843Q50.7750257997936 20.48813209494324 50.490196078431374 20.345717234262125Q49.82559339525284 20.108359133126935 49.04231166150671 20.01341589267286Q48.25902992776058 19.91847265221878 47.54695562435501 19.91847265221878Q44.98348813209494 19.91847265221878 43.08462332301342 21.20020639834881Q41.18575851393189 22.481940144478845 39.7141382868937 24.47574819401445Q38.24251805985552 26.469556243550052 37.07946336429309 28.700722394220847Q35.916408668730654 30.931888544891642 34.91950464396285 32.830753353973165Q35.77399380804954 32.830753353973165 36.628482972136226 32.87822497420021Q37.48297213622291 32.925696594427244 38.289989680082556 33.115583075335394Q38.3374613003096 33.16305469556244 38.62229102167183 33.234262125902994Q38.907120743034056 33.30546955624355 38.907120743034056 33.40041279669762Q38.907120743034056 33.54282765737874 38.289989680082556 33.614035087719294Q37.67285861713106 33.68524251805985 37.48297213622291 33.732714138286894L34.34984520123839 33.87512899896801Q34.15995872033024 34.20743034055727 33.9938080495356 34.4922600619195Q33.827657378740966 34.77708978328173 33.637770897832816 35.109391124871Q31.928792569659443 37.81527347781218 30.338493292053663 40.21259029927761Q28.748194014447883 42.60990712074303 26.659442724458202 44.50877192982456Q24.57069143446852 46.40763673890609 21.437564499484004 47.64189886480908Q20.915376676986583 47.831785345717236 20.345717234262125 47.92672858617131Q19.776057791537667 48.021671826625386 19.20639834881321 48.021671826625386ZM18.446852425180595 47.119711042311664Q20.15583075335397 47.119711042311664 21.746130030959748 46.19401444788441Q23.336429308565528 45.26831785345717 24.784313725490193 43.77296181630547Q26.23219814241486 42.27760577915377 27.466460268317853 40.52115583075336Q28.700722394220847 38.76470588235294 29.72136222910217 37.05572755417957Q30.742002063983488 35.34674922600619 31.45407636738906 34.06501547987616Q30.45717234262126 34.112487100103195 28.487100103199175 34.23116615067079Q26.517027863777088 34.34984520123839 24.11971104231166 34.58720330237358Q21.722394220846233 34.82456140350877 19.277605779153767 35.228070175438596Q16.8328173374613 35.631578947368425 14.74406604747162 36.24871001031992Q12.65531475748194 36.86584107327141 11.397316821465427 37.74406604747162Q10.139318885448915 38.62229102167183 10.139318885448915 39.80908152734778Q10.139318885448915 41.04334365325077 11.254901960784313 41.85036119711042Q12.37048503611971 42.657378740970074 13.367389060887511 43.13209494324045Q13.367389060887511 42.847265221878224 13.533539731682145 41.9453044375645Q13.69969040247678 41.04334365325077 13.984520123839008 40.21259029927761Q14.269349845201237 39.381836945304435 14.649122807017541 39.381836945304435Q14.74406604747162 39.381836945304435 14.767801857585138 39.54798761609907Q14.791537667698655 39.71413828689371 14.791537667698655 39.76160990712074V40.14138286893705Q14.69659442724458 40.758513931888544 14.601651186790503 41.30443756449948Q14.506707946336427 41.85036119711042 14.506707946336427 42.46749226006192Q14.506707946336427 42.752321981424146 14.530443756449946 43.060887512899896Q14.554179566563466 43.369453044375646 14.601651186790505 43.654282765737875Q15.883384932920535 44.128998968008254 17.734778121775022 44.60371517027863Q19.586171310629513 45.07843137254902 20.96284829721362 45.07843137254902Q21.105263157894736 45.07843137254902 21.27141382868937 45.0546955624355Q21.437564499484004 45.030959752321984 21.627450980392155 45.030959752321984Q21.674922600619194 45.030959752321984 21.76986584107327 45.030959752321984Q21.864809081527348 45.030959752321984 21.864809081527348 45.125902992776055Q21.864809081527348 45.31578947368421 21.390092879256965 45.38699690402477Q20.915376676986583 45.45820433436533 20.820433436532504 45.45820433436533Q19.348813209494324 45.45820433436533 17.805985552115583 45.26831785345718Q16.263157894736842 45.07843137254902 14.839009287925695 44.651186790505676Q15.266253869969038 45.932920536635706 16.191950464396285 46.526315789473685Q17.11764705882353 47.119711042311664 18.446852425180595 47.119711042311664Z"/>
    <radialGradient id="glass" cx="50%" cy="40%" r="65%">
      <stop offset="0%" stop-color="#46b6a4"/>
      <stop offset="100%" stop-color="#1c8174"/>
    </radialGradient>
    <filter id="glow" x="-40%" y="-40%" width="180%" height="180%" color-interpolation-filters="sRGB">
      <feGaussianBlur in="SourceAlpha" stdDeviation="1.4" result="b"/>
      <feFlood flood-color="#ff7d1a" result="amber"/>
      <feComposite in="amber" in2="b" operator="in" result="halo"/>
      <feMerge><feMergeNode in="halo"/><feMergeNode in="halo"/></feMerge>
    </filter>
    <filter id="core" x="-20%" y="-20%" width="140%" height="140%" color-interpolation-filters="sRGB">
      <feMorphology in="SourceAlpha" operator="erode" radius="0.7" result="e"/>
      <feGaussianBlur in="e" stdDeviation="0.6" result="s"/>
      <feFlood flood-color="#b45309" result="deep"/>
      <feComposite in="deep" in2="s" operator="in"/>
    </filter>
  </defs>
  <circle cx="32" cy="32" r="31" fill="url(#glass)"/>
  <use href="#F" filter="url(#glow)"/>
  <use href="#F" fill="#fcd34d"/>
  <use href="#F" filter="url(#core)"/>
</svg>
